<svg xmlns="http://www.w3.org/2000/svg">
	<symbol fill="none" id="icon-clients-sorting" viewBox="0 0 9 14">
		<path d="M5.06616 10.4754L5.80491 9.73665L7.00866 8.5329C7.25991 8.2779 7.07991 7.8429 6.71991 7.8429L4.38366 7.8429L2.27991 7.8429C1.91991 7.8429 1.73991 8.2779 1.99491 8.5329L3.93741 10.4754C4.24491 10.7866 4.75491 10.7866 5.06616 10.4754Z" fill="#252F40"/>
		<path d="M3.93384 3.3L3.19509 4.03875L1.99134 5.2425C1.74009 5.4975 1.92009 5.9325 2.28009 5.9325L4.61634 5.9325L6.72009 5.9325C7.08009 5.9325 7.26009 5.4975 7.00509 5.2425L5.06259 3.3C4.75509 2.98875 4.24509 2.98875 3.93384 3.3Z" fill="#252F40"/>
	</symbol>
	<symbol fill="none" id="icon-clients-arrow-left" viewBox="0 0 18 17">
		<path d="M10.7329 5.24878L7.24805 8.48397L10.7329 11.7192" stroke="black" stroke-width="1.04545" stroke-linecap="round" stroke-linejoin="round"/>
	</symbol>
	<symbol fill="none" id="icon-clients-arrow-right" viewBox="0 0 18 17">
		<path d="M7.79713 11.4834L11.207 8.31779L7.79713 5.15218" stroke="black" stroke-width="0.72865" stroke-linecap="round" stroke-linejoin="round"/>
	</symbol>
	<symbol fill="none" id="icon-clients-cross" viewBox="0 0 19 18">
		<path d="M16.0078 15.75L2.50781 2.25" stroke="#53627B" stroke-width="1.07205" stroke-linecap="round" stroke-linejoin="round"/>
		<path d="M16.0077 2.25L2.50769 15.75" stroke="#53627B" stroke-width="1.07205" stroke-linecap="round" stroke-linejoin="round"/>
	</symbol>
	<symbol fill="none" id="icon-clients-back" viewBox="0 0 24 24">
		<path d="M14 7L9 12L14 17" stroke="#F29B34" stroke-width="1.5" stroke-linecap="round" stroke-linejoin="round"/>
	</symbol>
	<symbol fill="none" id="icon-clients-add" viewBox="0 0 20 20">
		<path d="M10.0003 1.66663C5.40033 1.66663 1.66699 5.39996 1.66699 9.99996C1.66699 14.6 5.40033 18.3333 10.0003 18.3333C14.6003 18.3333 18.3337 14.6 18.3337 9.99996" stroke="#2CB493" stroke-width="1.5" stroke-miterlimit="10" stroke-linecap="round" stroke-linejoin="round"/>
		<path d="M18.3333 1.66663L11.5 8.49996" stroke="#2CB493" stroke-width="1.5" stroke-linecap="round" stroke-linejoin="round"/>
		<path d="M10.833 5.14172V9.16672H14.858" stroke="#2CB493" stroke-width="1.5" stroke-linecap="round" stroke-linejoin="round"/>
	</symbol>
	<symbol fill="none" id="icon-clients-substract" viewBox="0 0 20 20">
		<path d="M10.0003 1.66663C5.40033 1.66663 1.66699 5.39996 1.66699 9.99996C1.66699 14.6 5.40033 18.3333 10.0003 18.3333C14.6003 18.3333 18.3337 14.6 18.3337 9.99996" stroke="#D41D1D" stroke-width="1.5" stroke-miterlimit="10" stroke-linecap="round" stroke-linejoin="round"/>
		<path d="M10.833 9.16671L17.6663 2.33337" stroke="#D41D1D" stroke-width="1.5" stroke-linecap="round" stroke-linejoin="round"/>
		<path d="M18.3336 5.69163V1.66663H14.3086" stroke="#D41D1D" stroke-width="1.5" stroke-linecap="round" stroke-linejoin="round"/>
	</symbol>
	<symbol fill="none" id="icon-clients-phone" viewBox="0 0 24 24">
		<path d="M11.05 14.95L9.2 16.8C8.81 17.19 8.19 17.19 7.79 16.81C7.68 16.7 7.57 16.6 7.46 16.49C6.43 15.45 5.5 14.36 4.67 13.22C3.85 12.08 3.19 10.94 2.71 9.81C2.24 8.67 2 7.58 2 6.54C2 5.86 2.12 5.21 2.36 4.61C2.6 4 2.98 3.44 3.51 2.94C4.15 2.31 4.85 2 5.59 2C5.87 2 6.15 2.06 6.4 2.18C6.66 2.3 6.89 2.48 7.07 2.74L9.39 6.01C9.57 6.26 9.7 6.49 9.79 6.71C9.88 6.92 9.93 7.13 9.93 7.32C9.93 7.56 9.86 7.8 9.72 8.03C9.59 8.26 9.4 8.5 9.16 8.74L8.4 9.53C8.29 9.64 8.24 9.77 8.24 9.93C8.24 10.01 8.25 10.08 8.27 10.16C8.3 10.24 8.33 10.3 8.35 10.36C8.53 10.69 8.84 11.12 9.28 11.64C9.73 12.16 10.21 12.69 10.73 13.22C10.83 13.32 10.94 13.42 11.04 13.52C11.44 13.91 11.45 14.55 11.05 14.95Z" fill="white"/>
		<path d="M21.9696 18.33C21.9696 18.61 21.9196 18.9 21.8196 19.18C21.7896 19.26 21.7596 19.34 21.7196 19.42C21.5496 19.78 21.3296 20.12 21.0396 20.44C20.5496 20.98 20.0096 21.37 19.3996 21.62C19.3896 21.62 19.3796 21.63 19.3696 21.63C18.7796 21.87 18.1396 22 17.4496 22C16.4296 22 15.3396 21.76 14.1896 21.27C13.0396 20.78 11.8896 20.12 10.7496 19.29C10.3596 19 9.96961 18.71 9.59961 18.4L12.8696 15.13C13.1496 15.34 13.3996 15.5 13.6096 15.61C13.6596 15.63 13.7196 15.66 13.7896 15.69C13.8696 15.72 13.9496 15.73 14.0396 15.73C14.2096 15.73 14.3396 15.67 14.4496 15.56L15.2096 14.81C15.4596 14.56 15.6996 14.37 15.9296 14.25C16.1596 14.11 16.3896 14.04 16.6396 14.04C16.8296 14.04 17.0296 14.08 17.2496 14.17C17.4696 14.26 17.6996 14.39 17.9496 14.56L21.2596 16.91C21.5196 17.09 21.6996 17.3 21.8096 17.55C21.9096 17.8 21.9696 18.05 21.9696 18.33Z" fill="white"/>
	</symbol>
	<symbol fill="none" id="icon-clients-arrow-down" viewBox="0 0 15 14">
		<path d="M10.5909 4.77161H6.9089L3.59334 4.77161C3.02598 4.77161 2.74229 5.44827 3.14418 5.84494L6.2056 8.86661C6.69614 9.35077 7.494 9.35077 7.98454 8.86661L9.14883 7.71744L11.046 5.84494C11.4419 5.44827 11.1583 4.77161 10.5909 4.77161Z" fill="#53627B"/>
	</symbol>
	<symbol fill="none" id="icon-clients-add-photo" viewBox="0 0 18 18">
		<path d="M15.75 9H2.25" stroke="#53627B" stroke-width="1.07205" stroke-linecap="round" stroke-linejoin="round"/>
		<path d="M9 2.24988V15.7499" stroke="#53627B" stroke-width="1.07205" stroke-linecap="round" stroke-linejoin="round"/>
	</symbol>
	<symbol fill="none" id="icon-clients-question" viewBox="0 0 19 19">
		<circle cx="9.50073" cy="9.50073" r="8.90712" stroke="#67748E" stroke-width="1"/>
		<circle cx="9.50073" cy="9.50073" r="8.90712" stroke="#67748E" stroke-width="1"/>
		<path d="M8.83127 11.2287V11.1831C8.83634 10.6986 8.88707 10.313 8.98346 10.0264C9.07985 9.73978 9.21682 9.50769 9.39438 9.33013C9.57194 9.15257 9.78501 8.98896 10.0336 8.8393C10.1833 8.74799 10.3177 8.64018 10.4369 8.51589C10.5561 8.38907 10.65 8.24321 10.7185 8.07834C10.7895 7.91346 10.825 7.73083 10.825 7.53044C10.825 7.28186 10.7667 7.06625 10.65 6.88362C10.5333 6.70098 10.3773 6.56021 10.182 6.46128C9.98667 6.36235 9.76979 6.31289 9.53136 6.31289C9.32336 6.31289 9.12297 6.35601 8.93019 6.44226C8.73741 6.5285 8.57634 6.6642 8.44698 6.84937C8.31761 7.03454 8.24278 7.27678 8.22249 7.5761H7.26367C7.28396 7.14488 7.39557 6.77581 7.5985 6.46889C7.80396 6.16197 8.0741 5.92733 8.40893 5.76499C8.74629 5.60265 9.12043 5.52148 9.53136 5.52148C9.97779 5.52148 10.3659 5.61026 10.6956 5.78782C11.0279 5.96538 11.2841 6.20889 11.4642 6.51835C11.6468 6.82781 11.7382 7.18039 11.7382 7.5761C11.7382 7.85512 11.695 8.10751 11.6088 8.33326C11.5251 8.55901 11.4033 8.76067 11.2435 8.93823C11.0863 9.11579 10.896 9.27306 10.6728 9.41003C10.4496 9.54954 10.2708 9.69666 10.1363 9.85139C10.0019 10.0036 9.90423 10.1849 9.84335 10.3955C9.78248 10.606 9.7495 10.8686 9.74443 11.1831V11.2287H8.83127ZM9.31829 13.4812C9.13058 13.4812 8.96951 13.414 8.83507 13.2796C8.70063 13.1451 8.63341 12.984 8.63341 12.7963C8.63341 12.6086 8.70063 12.4476 8.83507 12.3131C8.96951 12.1787 9.13058 12.1115 9.31829 12.1115C9.50599 12.1115 9.66706 12.1787 9.8015 12.3131C9.93594 12.4476 10.0032 12.6086 10.0032 12.7963C10.0032 12.9206 9.97145 13.0348 9.90804 13.1388C9.84716 13.2428 9.76472 13.3265 9.66072 13.3899C9.55926 13.4508 9.44511 13.4812 9.31829 13.4812Z" fill="#67748E"/>
	</symbol>
	<symbol fill="none" id="icon-clients-arrow" viewBox="0 0 72 12">
		<path d="M71.529 6.1651C71.8219 5.8722 71.8219 5.39733 71.529 5.10444L66.756 0.331465C66.4631 0.0385714 65.9882 0.0385714 65.6953 0.331465C65.4024 0.624358 65.4024 1.09923 65.6953 1.39213L69.938 5.63477L65.6953 9.87741C65.4024 10.1703 65.4024 10.6452 65.6953 10.9381C65.9882 11.231 66.4631 11.231 66.756 10.9381L71.529 6.1651ZM0.707031 6.38477H70.9986V4.88477H0.707031V6.38477Z" fill="#252F40"/>
	</symbol>
</svg>