<svg xmlns="http://www.w3.org/2000/svg">
	<symbol fill="none" id="icon-header-arrow" viewBox="0 0 20 20">
		<path d="M12.6669 8.74161L11.0252 7.09994L8.35023 4.42494C7.78356 3.86661 6.81689 4.26661 6.81689 5.06661V10.2583V14.9333C6.81689 15.7333 7.78356 16.1333 8.35023 15.5666L12.6669 11.2499C13.3586 10.5666 13.3586 9.43327 12.6669 8.74161Z" fill="currentColor"/>
	</symbol>
	<symbol fill="none" id="icon-header-filters" viewBox="0 0 20 20">
		<path d="M18.2416 14.2167C18.2416 14.5311 17.981 14.7917 17.6666 14.7917H12.3V14.9834C12.3 16.1334 11.61 16.5167 10.7666 16.5167H6.16663C5.3233 16.5167 4.6333 16.1334 4.6333 14.9834V14.7917H2.3333C2.01897 14.7917 1.7583 14.5311 1.7583 14.2167C1.7583 13.9024 2.01897 13.6417 2.3333 13.6417H4.6333V13.4501C4.6333 12.3001 5.3233 11.9167 6.16663 11.9167H10.7666C11.61 11.9167 12.3 12.3001 12.3 13.4501V13.6417H17.6666C17.981 13.6417 18.2416 13.9024 18.2416 14.2167Z" fill="#67748E"/>
		<path d="M18.2416 5.7834C18.2416 6.09773 17.981 6.3584 17.6666 6.3584H15.3666V6.55007C15.3666 7.70007 14.6766 8.0834 13.8333 8.0834H9.2333C8.38997 8.0834 7.69997 7.70007 7.69997 6.55007V6.3584H2.3333C2.01897 6.3584 1.7583 6.09773 1.7583 5.7834C1.7583 5.46907 2.01897 5.2084 2.3333 5.2084H7.69997V5.01673C7.69997 3.86673 8.38997 3.4834 9.2333 3.4834H13.8333C14.6766 3.4834 15.3666 3.86673 15.3666 5.01673V5.2084H17.6666C17.981 5.2084 18.2416 5.46907 18.2416 5.7834Z" fill="#67748E"/>
	</symbol>
	<symbol fill="none" id="icon-header-profile" viewBox="0 0 20 20">
		<path d="M10.0001 2.3335C7.9914 2.3335 6.3584 3.9665 6.3584 5.97516C6.3584 7.9455 7.8994 9.54016 9.90806 9.60916C9.9694 9.6015 10.0307 9.6015 10.0767 9.60916C10.0921 9.60916 10.0997 9.60916 10.1151 9.60916C10.1227 9.60916 10.1227 9.60916 10.1304 9.60916C12.0931 9.54016 13.6341 7.9455 13.6417 5.97516C13.6417 3.9665 12.0087 2.3335 10.0001 2.3335Z" fill="#67748E"/>
		<path d="M13.895 11.6484C11.756 10.2224 8.26769 10.2224 6.11336 11.6484C5.13969 12.3 4.60303 13.1817 4.60303 14.1247C4.60303 15.0677 5.13969 15.9417 6.10569 16.5857C7.17903 17.3064 8.58969 17.6667 10.0004 17.6667C11.411 17.6667 12.8217 17.3064 13.895 16.5857C14.861 15.934 15.3977 15.06 15.3977 14.1094C15.39 13.1664 14.861 12.2924 13.895 11.6484Z" fill="#67748E"/>
	</symbol>
	<symbol fill="none" id="icon-header-burger" viewBox="0 0 24 24">
		<path d="M3 17H21" stroke="currentColor" stroke-width="1.5" stroke-linecap="round" stroke-linejoin="round"/>
		<path d="M3 12H21" stroke="currentColor" stroke-width="1.5" stroke-linecap="round" stroke-linejoin="round"/>
		<path d="M3 7H21" stroke="currentColor" stroke-width="1.5" stroke-linecap="round" stroke-linejoin="round"/>
	</symbol>
	<symbol fill="none" id="icon-header-search" viewBox="0 0 17 15">
		<path fill-rule="evenodd" clip-rule="evenodd" d="M7.20589 1.88732C4.26849 1.88732 1.88726 4.26855 1.88726 7.20595C1.88726 10.1433 4.26849 12.5246 7.20589 12.5246C10.1433 12.5246 12.5245 10.1433 12.5245 7.20595C12.5245 4.26855 10.1433 1.88732 7.20589 1.88732ZM0.857849 7.20595C0.857849 3.70002 3.69996 0.85791 7.20589 0.85791C10.7118 0.85791 13.5539 3.70002 13.5539 7.20595C13.5539 10.7119 10.7118 13.554 7.20589 13.554C3.69996 13.554 0.857849 10.7119 0.857849 7.20595Z" fill="#788398"/>
		<path fill-rule="evenodd" clip-rule="evenodd" d="M10.9596 10.9596C11.1606 10.7586 11.4865 10.7586 11.6875 10.9596L14.7757 14.0478C14.9767 14.2488 14.9767 14.5747 14.7757 14.7757C14.5747 14.9767 14.2488 14.9767 14.0478 14.7757L10.9596 11.6875C10.7586 11.4865 10.7586 11.1606 10.9596 10.9596Z" fill="#788398"/>
	</symbol>
	<symbol fill="none" id="icon-header-filters-2" viewBox="0 0 18 18">
		<g clip-path="url(#clip0_612_416)">
		<path d="M2.25 5.25H15.75" stroke="#788398" stroke-width="1.5" stroke-linecap="round"/>
		<path d="M4.5 9H13.5" stroke="#788398" stroke-width="1.5" stroke-linecap="round"/>
		<path d="M7.5 12.75H10.5" stroke="#788398" stroke-width="1.5" stroke-linecap="round"/>
		</g>
		<defs>
		<clipPath id="clip0_612_416">
		<rect width="18" height="18" fill="white"/>
		</clipPath>
		</defs>
	</symbol>
	<symbol fill="none" id="icon-header-add" viewBox="0 0 17 17">
		<path d="M4.25 8.5H12.75" stroke="white" stroke-linecap="round" stroke-linejoin="round"/>
		<path d="M8.5 12.75V4.25" stroke="white" stroke-linecap="round" stroke-linejoin="round"/>
	</symbol>
</svg>