<svg xmlns="http://www.w3.org/2000/svg">
	<symbol fill="none" id="icon-staff-arrow-left" viewBox="0 0 17 17">
		<path d="M10.6251 14.1106L6.00672 9.49229C5.4613 8.94687 5.4613 8.05437 6.00672 7.50896L10.6251 2.89062" stroke="#292D32" stroke-width="1.5" stroke-miterlimit="10" stroke-linecap="round" stroke-linejoin="round"/>
	</symbol>
	<symbol fill="none" id="icon-staff-arrow-right" viewBox="0 0 17 17">
		<path d="M6.37495 2.88938L10.9933 7.50771C11.5387 8.05313 11.5387 8.94563 10.9933 9.49104L6.37495 14.1094" stroke="#292D32" stroke-width="1.5" stroke-miterlimit="10" stroke-linecap="round" stroke-linejoin="round"/>
	</symbol>
	<symbol fill="none" id="icon-staff-arrow-down" viewBox="0 0 16 16">
		<path d="M3.5465 6.6805L5.6865 8.82049L6.99316 10.1338C7.5465 10.6872 8.4465 10.6872 8.99983 10.1338L12.4532 6.6805C12.9065 6.22716 12.5798 5.45383 11.9465 5.45383L8.2065 5.45383L4.05317 5.45383C3.41317 5.45383 3.09317 6.22716 3.5465 6.6805Z" fill="#252F40"/>
	</symbol>
	<symbol fill="none" id="icon-staff-cross" viewBox="0 0 24 24">
		<path d="M15.7128 16.7735L7.22748 8.28826C6.93757 7.99834 6.93757 7.51751 7.22748 7.2276C7.5174 6.93768 7.99823 6.93768 8.28814 7.2276L16.7734 15.7129C17.0633 16.0028 17.0633 16.4836 16.7734 16.7735C16.4835 17.0635 16.0027 17.0635 15.7128 16.7735Z" fill="#252F40"/>
		<path d="M7.22658 16.7735C6.93666 16.4836 6.93666 16.0028 7.22658 15.7129L15.7119 7.2276C16.0018 6.93768 16.4826 6.93768 16.7725 7.2276C17.0624 7.51751 17.0624 7.99834 16.7725 8.28826L8.28724 16.7735C7.99732 17.0635 7.51649 17.0635 7.22658 16.7735Z" fill="#252F40"/>
	</symbol>
</svg>