<svg xmlns="http://www.w3.org/2000/svg">
	<symbol id="icon-header-option" viewBox="0 0 24 24">
		<path d="M 9.9980469 0 L 9.328125 0.0234375 L 8.6621094 0.08984375 L 8 0.203125 L 8 2.2539062 L 7.4628906 2.4121094 L 6.9375 2.609375 L 6.4277344 2.8398438 L 5.9375 3.1074219 L 4.4863281 1.6582031 L 3.9375 2.046875 L 3.4199219 2.4707031 L 2.9296875 2.9296875 L 2.4726562 3.4179688 L 2.046875 3.9394531 L 1.6582031 4.484375 L 3.1074219 5.9375 L 2.8417969 6.4296875 L 2.609375 6.9394531 L 2.4140625 7.4628906 L 2.2539062 8 L 0.203125 8 L 0.091796875 8.6621094 L 0.0234375 9.3300781 L 0 10 L 0.0234375 10.669922 L 0.091796875 11.339844 L 0.203125 12 L 2.2539062 12 L 2.4140625 12.539062 L 2.609375 13.060547 L 2.8417969 13.570312 L 3.1074219 14.064453 L 1.6582031 15.515625 L 2.046875 16.060547 L 2.4726562 16.582031 L 2.9296875 17.070312 L 3.4199219 17.529297 L 3.9375 17.953125 L 4.4863281 18.341797 L 5.9375 16.892578 L 6.4277344 17.160156 L 6.9375 17.390625 L 7.4628906 17.587891 L 8 17.746094 L 8 19.796875 L 8.6621094 19.910156 L 9.328125 19.978516 L 9.9980469 20 L 10.671875 19.978516 L 11.337891 19.910156 L 12 19.796875 L 12 17.746094 L 12.537109 17.587891 L 13.0625 17.390625 L 13.572266 17.160156 L 14.0625 16.892578 L 15.513672 18.341797 L 16.058594 17.953125 L 16.580078 17.529297 L 17.070312 17.070312 L 17.527344 16.582031 L 17.953125 16.060547 L 18.341797 15.515625 L 16.888672 14.064453 L 17.158203 13.570312 L 17.390625 13.060547 L 17.585938 12.539062 L 17.746094 12 L 19.796875 12 L 19.908203 11.339844 L 19.976562 10.669922 L 20 10 L 19.976562 9.3300781 L 19.908203 8.6621094 L 19.796875 8 L 17.746094 8 L 17.585938 7.4628906 L 17.390625 6.9394531 L 17.158203 6.4296875 L 16.888672 5.9375 L 18.341797 4.484375 L 17.953125 3.9394531 L 17.527344 3.4179688 L 17.070312 2.9296875 L 16.580078 2.4707031 L 16.058594 2.046875 L 15.513672 1.6582031 L 14.0625 3.1074219 L 13.572266 2.8398438 L 13.0625 2.609375 L 12.537109 2.4121094 L 12 2.2539062 L 12 0.203125 L 11.337891 0.08984375 L 10.671875 0.0234375 L 9.9980469 0 z M 9.6640625 1.0058594 L 10.333984 1.0058594 L 11 1.0566406 L 11 3.0722656 L 11.572266 3.1796875 L 12.130859 3.3320312 L 12.677734 3.5332031 L 13.207031 3.7773438 L 13.710938 4.0644531 L 14.191406 4.3925781 L 15.617188 2.96875 L 16.123047 3.4042969 L 16.595703 3.875 L 17.03125 4.3828125 L 15.605469 5.8085938 L 15.933594 6.2871094 L 16.222656 6.7949219 L 16.466797 7.3222656 L 16.666016 7.8671875 L 16.820312 8.4296875 L 16.925781 8.9980469 L 18.943359 8.9980469 L 18.994141 9.6660156 L 18.994141 10.333984 L 18.943359 11.001953 L 16.925781 11.001953 L 16.820312 11.570312 L 16.666016 12.132812 L 16.466797 12.679688 L 16.222656 13.208984 L 15.933594 13.712891 L 15.605469 14.193359 L 17.03125 15.617188 L 16.595703 16.125 L 16.123047 16.597656 L 15.617188 17.03125 L 14.191406 15.607422 L 13.710938 15.935547 L 13.207031 16.222656 L 12.677734 16.46875 L 12.130859 16.667969 L 11.572266 16.820312 L 11 16.927734 L 11 18.943359 L 10.333984 18.994141 L 9.6640625 18.994141 L 9 18.943359 L 9 16.927734 L 8.4277344 16.820312 L 7.8671875 16.667969 L 7.3222656 16.46875 L 6.7929688 16.222656 L 6.2890625 15.935547 L 5.8085938 15.607422 L 4.3828125 17.03125 L 3.8769531 16.597656 L 3.4042969 16.125 L 2.96875 15.617188 L 4.3945312 14.193359 L 4.0664062 13.712891 L 3.7773438 13.208984 L 3.5332031 12.679688 L 3.3339844 12.132812 L 3.1796875 11.570312 L 3.0703125 11.001953 L 1.0566406 11.001953 L 1.0058594 10.333984 L 1.0058594 9.6660156 L 1.0566406 8.9980469 L 3.0703125 8.9980469 L 3.1796875 8.4296875 L 3.3339844 7.8671875 L 3.5332031 7.3222656 L 3.7773438 6.7949219 L 4.0664062 6.2871094 L 4.3945312 5.8085938 L 2.96875 4.3828125 L 3.4042969 3.875 L 3.8769531 3.4042969 L 4.3828125 2.96875 L 5.8085938 4.3925781 L 6.2890625 4.0644531 L 6.7929688 3.7773438 L 7.3222656 3.5332031 L 7.8671875 3.3320312 L 8.4277344 3.1796875 L 9 3.0722656 L 9 1.0566406 L 9.6640625 1.0058594 z M 9.9980469 6.0019531 L 9.5175781 6.0292969 L 9.0429688 6.1171875 L 8.5820312 6.2617188 L 8.140625 6.4589844 L 7.7285156 6.7070312 L 7.3476562 7.0078125 L 7.0058594 7.3496094 L 6.7070312 7.7265625 L 6.4570312 8.1425781 L 6.2597656 8.5820312 L 6.1152344 9.0429688 L 6.0292969 9.5195312 L 6 10 L 6.0292969 10.484375 L 6.1152344 10.957031 L 6.2597656 11.417969 L 6.4570312 11.859375 L 6.7070312 12.273438 L 7.0058594 12.654297 L 7.3476562 12.996094 L 7.7285156 13.292969 L 8.140625 13.541016 L 8.5820312 13.742188 L 9.0429688 13.882812 L 9.5175781 13.970703 L 9.9980469 14.001953 L 10.482422 13.970703 L 10.957031 13.882812 L 11.417969 13.742188 L 11.859375 13.541016 L 12.271484 13.292969 L 12.652344 12.996094 L 12.994141 12.654297 L 13.291016 12.273438 L 13.542969 11.859375 L 13.740234 11.417969 L 13.884766 10.957031 L 13.970703 10.484375 L 14 10 L 13.970703 9.5195312 L 13.884766 9.0429688 L 13.740234 8.5820312 L 13.542969 8.1425781 L 13.291016 7.7265625 L 12.994141 7.3496094 L 12.652344 7.0078125 L 12.271484 6.7070312 L 11.859375 6.4589844 L 11.417969 6.2617188 L 10.957031 6.1171875 L 10.482422 6.0292969 L 9.9980469 6.0019531 z M 9.796875 7.0078125 L 10.203125 7.0078125 L 10.611328 7.0625 L 11.003906 7.1738281 L 11.380859 7.3359375 L 11.730469 7.5488281 L 12.046875 7.8085938 L 12.326172 8.1054688 L 12.5625 8.4414062 L 12.751953 8.8046875 L 12.888672 9.1914062 L 12.972656 9.59375 L 12.998047 10 L 12.972656 10.410156 L 12.888672 10.808594 L 12.751953 11.195312 L 12.5625 11.558594 L 12.326172 11.894531 L 12.046875 12.193359 L 11.730469 12.451172 L 11.380859 12.664062 L 11.003906 12.828125 L 10.611328 12.9375 L 10.203125 12.992188 L 9.796875 12.992188 L 9.3886719 12.9375 L 8.9941406 12.828125 L 8.6191406 12.664062 L 8.2695312 12.451172 L 7.9511719 12.193359 L 7.6738281 11.894531 L 7.4375 11.558594 L 7.2480469 11.195312 L 7.1113281 10.808594 L 7.0273438 10.410156 L 7.0019531 10 L 7.0273438 9.59375 L 7.1113281 9.1914062 L 7.2480469 8.8046875 L 7.4375 8.4414062 L 7.6738281 8.1054688 L 7.9511719 7.8085938 L 8.2695312 7.5488281 L 8.6191406 7.3359375 L 8.9941406 7.1738281 L 9.3886719 7.0625 L 9.796875 7.0078125 z " style="fill:#222222; fill-opacity:1;  stroke-width:0px;"/>
	</symbol>
	<symbol fill="none" id="icon-header-import" viewBox="0 0 24 24">
		<path fill-rule="evenodd" clip-rule="evenodd" d="M15.5303 10.4697C15.2374 10.1768 14.7626 10.1768 14.4697 10.4697L12.75 12.1893V4C12.75 3.58579 12.4142 3.25 12 3.25C11.5858 3.25 11.25 3.58579 11.25 4L11.25 12.1893L9.53033 10.4697C9.23744 10.1768 8.76256 10.1768 8.46967 10.4697C8.17678 10.7626 8.17678 11.2374 8.46967 11.5303L11.4697 14.5303C11.7626 14.8232 12.2374 14.8232 12.5303 14.5303L15.5303 11.5303C15.8232 11.2374 15.8232 10.7626 15.5303 10.4697Z" fill="#1C274C"/>
		<path d="M17.7476 12C17.2996 12 16.9077 12.2742 16.591 12.591L13.591 15.591C12.7123 16.4697 11.2877 16.4697 10.409 15.591L7.40901 12.591C7.09226 12.2742 6.70041 12 6.25245 12H4C4 16.4183 7.58172 20 12 20C16.4183 20 20 16.4183 20 12H17.7476Z" fill="#1C274C"/>
	</symbol>
	<symbol id="icon-header-export" viewBox="0 0 24 24">
		<path fill-rule="evenodd" clip-rule="evenodd" d="M8.84467 7.90533C9.13756 8.19822 9.61244 8.19822 9.90533 7.90533L11.625 6.18566L11.625 14.375C11.625 14.7892 11.9608 15.125 12.375 15.125C12.7892 15.125 13.125 14.7892 13.125 14.375V6.18566L14.8447 7.90533C15.1376 8.19822 15.6124 8.19822 15.9053 7.90533C16.1982 7.61244 16.1982 7.13756 15.9053 6.84467L12.9053 3.84467C12.6124 3.55178 12.1376 3.55178 11.8447 3.84467L8.84467 6.84467C8.55178 7.13756 8.55178 7.61244 8.84467 7.90533Z" fill="#1C274C"/>
		<path d="M12.375 20.375C16.7933 20.375 20.375 16.7933 20.375 12.375L16.625 12.375C15.6822 12.375 15.2108 12.375 14.9179 12.6679C14.625 12.9608 14.625 13.4322 14.625 14.375C14.625 15.6176 13.6176 16.625 12.375 16.625C11.1324 16.625 10.125 15.6176 10.125 14.375C10.125 13.4322 10.125 12.9608 9.83211 12.6679C9.53921 12.375 9.06781 12.375 8.125 12.375H4.375C4.375 16.7933 7.95672 20.375 12.375 20.375Z" fill="#1C274C"/>
	</symbol>
	<symbol fill="none" id="icon-header-arrow" viewBox="0 0 20 20">
		<path d="M12.6669 8.74161L11.0252 7.09994L8.35023 4.42494C7.78356 3.86661 6.81689 4.26661 6.81689 5.06661V10.2583V14.9333C6.81689 15.7333 7.78356 16.1333 8.35023 15.5666L12.6669 11.2499C13.3586 10.5666 13.3586 9.43327 12.6669 8.74161Z" fill="currentColor"/>
	</symbol>
	<symbol fill="none" id="icon-header-filters" viewBox="0 0 20 20">
		<path d="M18.2416 14.2167C18.2416 14.5311 17.981 14.7917 17.6666 14.7917H12.3V14.9834C12.3 16.1334 11.61 16.5167 10.7666 16.5167H6.16663C5.3233 16.5167 4.6333 16.1334 4.6333 14.9834V14.7917H2.3333C2.01897 14.7917 1.7583 14.5311 1.7583 14.2167C1.7583 13.9024 2.01897 13.6417 2.3333 13.6417H4.6333V13.4501C4.6333 12.3001 5.3233 11.9167 6.16663 11.9167H10.7666C11.61 11.9167 12.3 12.3001 12.3 13.4501V13.6417H17.6666C17.981 13.6417 18.2416 13.9024 18.2416 14.2167Z" fill="#67748E"/>
		<path d="M18.2416 5.7834C18.2416 6.09773 17.981 6.3584 17.6666 6.3584H15.3666V6.55007C15.3666 7.70007 14.6766 8.0834 13.8333 8.0834H9.2333C8.38997 8.0834 7.69997 7.70007 7.69997 6.55007V6.3584H2.3333C2.01897 6.3584 1.7583 6.09773 1.7583 5.7834C1.7583 5.46907 2.01897 5.2084 2.3333 5.2084H7.69997V5.01673C7.69997 3.86673 8.38997 3.4834 9.2333 3.4834H13.8333C14.6766 3.4834 15.3666 3.86673 15.3666 5.01673V5.2084H17.6666C17.981 5.2084 18.2416 5.46907 18.2416 5.7834Z" fill="#67748E"/>
	</symbol>
	<symbol fill="none" id="icon-header-profile" viewBox="0 0 20 20">
		<path d="M10.0001 2.3335C7.9914 2.3335 6.3584 3.9665 6.3584 5.97516C6.3584 7.9455 7.8994 9.54016 9.90806 9.60916C9.9694 9.6015 10.0307 9.6015 10.0767 9.60916C10.0921 9.60916 10.0997 9.60916 10.1151 9.60916C10.1227 9.60916 10.1227 9.60916 10.1304 9.60916C12.0931 9.54016 13.6341 7.9455 13.6417 5.97516C13.6417 3.9665 12.0087 2.3335 10.0001 2.3335Z" fill="#67748E"/>
		<path d="M13.895 11.6484C11.756 10.2224 8.26769 10.2224 6.11336 11.6484C5.13969 12.3 4.60303 13.1817 4.60303 14.1247C4.60303 15.0677 5.13969 15.9417 6.10569 16.5857C7.17903 17.3064 8.58969 17.6667 10.0004 17.6667C11.411 17.6667 12.8217 17.3064 13.895 16.5857C14.861 15.934 15.3977 15.06 15.3977 14.1094C15.39 13.1664 14.861 12.2924 13.895 11.6484Z" fill="#67748E"/>
	</symbol>
	<symbol fill="none" id="icon-header-burger" viewBox="0 0 24 24">
		<path d="M3 17H21" stroke="currentColor" stroke-width="1.5" stroke-linecap="round" stroke-linejoin="round"/>
		<path d="M3 12H21" stroke="currentColor" stroke-width="1.5" stroke-linecap="round" stroke-linejoin="round"/>
		<path d="M3 7H21" stroke="currentColor" stroke-width="1.5" stroke-linecap="round" stroke-linejoin="round"/>
	</symbol>
	<symbol fill="none" id="icon-header-search" viewBox="0 0 17 15">
		<path fill-rule="evenodd" clip-rule="evenodd" d="M7.20589 1.88732C4.26849 1.88732 1.88726 4.26855 1.88726 7.20595C1.88726 10.1433 4.26849 12.5246 7.20589 12.5246C10.1433 12.5246 12.5245 10.1433 12.5245 7.20595C12.5245 4.26855 10.1433 1.88732 7.20589 1.88732ZM0.857849 7.20595C0.857849 3.70002 3.69996 0.85791 7.20589 0.85791C10.7118 0.85791 13.5539 3.70002 13.5539 7.20595C13.5539 10.7119 10.7118 13.554 7.20589 13.554C3.69996 13.554 0.857849 10.7119 0.857849 7.20595Z" fill="#788398"/>
		<path fill-rule="evenodd" clip-rule="evenodd" d="M10.9596 10.9596C11.1606 10.7586 11.4865 10.7586 11.6875 10.9596L14.7757 14.0478C14.9767 14.2488 14.9767 14.5747 14.7757 14.7757C14.5747 14.9767 14.2488 14.9767 14.0478 14.7757L10.9596 11.6875C10.7586 11.4865 10.7586 11.1606 10.9596 10.9596Z" fill="#788398"/>
	</symbol>
	<symbol fill="none" id="icon-header-filters-2" viewBox="0 0 18 18">
		<g clip-path="url(#clip0_612_416)">
		<path d="M2.25 5.25H15.75" stroke="#788398" stroke-width="1.5" stroke-linecap="round"/>
		<path d="M4.5 9H13.5" stroke="#788398" stroke-width="1.5" stroke-linecap="round"/>
		<path d="M7.5 12.75H10.5" stroke="#788398" stroke-width="1.5" stroke-linecap="round"/>
		</g>
		<defs>
		<clipPath id="clip0_612_416">
		<rect width="18" height="18" fill="white"/>
		</clipPath>
		</defs>
	</symbol>
	<symbol fill="none" id="icon-header-add" viewBox="0 0 17 17">
		<path d="M4.25 8.5H12.75" stroke="white" stroke-linecap="round" stroke-linejoin="round"/>
		<path d="M8.5 12.75V4.25" stroke="white" stroke-linecap="round" stroke-linejoin="round"/>
	</symbol>
</svg>