<svg xmlns="http://www.w3.org/2000/svg">
	<symbol fill="none" id="icon-aside-menu-1" viewBox="0 0 25 25">
		<path d="M3.125 4.16675V18.8334C3.125 19.938 4.02043 20.8334 5.125 20.8334H17.7083H19.875C20.9796 20.8334 21.875 19.938 21.875 18.8334V8.33341H17.7083" stroke="currentColor" stroke-width="1.5" stroke-linecap="round" stroke-linejoin="round"/>
		<path d="M3.125 4.16675H17.7083V18.8334C17.7083 19.938 18.6038 20.8334 19.7083 20.8334H19.7917" stroke="currentColor" stroke-width="1.5" stroke-linecap="round" stroke-linejoin="round"/>
		<path d="M13.5415 8.33325L7.2915 8.33325" stroke="currentColor" stroke-width="1.5" stroke-linecap="round" stroke-linejoin="round"/>
		<path d="M13.5417 12.5L9.375 12.5" stroke="currentColor" stroke-width="1.5" stroke-linecap="round" stroke-linejoin="round"/>
	</symbol>
	<symbol fill="none" id="icon-aside-menu-2" viewBox="0 0 25 25">
		<path d="M4.1665 16.6666H20.8332V20.875C20.8332 21.4272 20.3855 21.875 19.8332 21.875H5.1665C4.61422 21.875 4.1665 21.4272 4.1665 20.875V16.6666Z" stroke="currentColor" stroke-width="1.5" stroke-linejoin="round"/>
		<path d="M3.125 7.29163H21.875V14.6666C21.875 15.7712 20.9796 16.6666 19.875 16.6666H5.125C4.02043 16.6666 3.125 15.7712 3.125 14.6666V7.29163Z" stroke="currentColor" stroke-width="1.5" stroke-linejoin="round"/>
		<path d="M8.3335 5.125C8.3335 4.02043 9.22893 3.125 10.3335 3.125H14.6668C15.7714 3.125 16.6668 4.02043 16.6668 5.125V7.29167H8.3335V5.125Z" stroke="currentColor" stroke-width="1.5" stroke-linejoin="round"/>
		<path d="M12.5 13.5416H12.502V13.5436H12.5V13.5416Z" stroke="currentColor" stroke-width="1.5" stroke-linecap="round" stroke-linejoin="round"/>
	</symbol>
	<symbol fill="none" id="icon-aside-menu-3" viewBox="0 0 25 25">
		<path d="M7.2915 20.8334C7.2915 19.1075 9.62335 17.7084 12.4998 17.7084C15.3763 17.7084 17.7082 19.1075 17.7082 20.8334" stroke="currentColor" stroke-width="1.5" stroke-linecap="round" stroke-linejoin="round"/>
		<path d="M18.75 14.8433C20.5895 15.3255 21.875 16.4268 21.875 17.7082" stroke="currentColor" stroke-width="1.5" stroke-linecap="round" stroke-linejoin="round"/>
		<path d="M6.25 14.8433C4.41052 15.3255 3.125 16.4268 3.125 17.7082" stroke="currentColor" stroke-width="1.5" stroke-linecap="round" stroke-linejoin="round"/>
		<path d="M12.5 14.5834C14.2259 14.5834 15.625 13.1843 15.625 11.4584C15.625 9.73248 14.2259 8.33337 12.5 8.33337C10.7741 8.33337 9.375 9.73248 9.375 11.4584C9.375 13.1843 10.7741 14.5834 12.5 14.5834Z" stroke="currentColor" stroke-width="1.5" stroke-linecap="round" stroke-linejoin="round"/>
		<path d="M18.7502 10.6627C19.3895 10.0904 19.7918 9.25889 19.7918 8.33337C19.7918 6.60748 18.3927 5.20837 16.6668 5.20837C15.8665 5.20837 15.1364 5.50926 14.5835 6.0041" stroke="currentColor" stroke-width="1.5" stroke-linecap="round" stroke-linejoin="round"/>
		<path d="M6.25016 10.6627C5.61084 10.0904 5.2085 9.25889 5.2085 8.33337C5.2085 6.60748 6.60761 5.20837 8.3335 5.20837C9.13387 5.20837 9.86396 5.50926 10.4168 6.0041" stroke="currentColor" stroke-width="1.5" stroke-linecap="round" stroke-linejoin="round"/>
	</symbol>
	<symbol fill="none" id="icon-aside-menu-4" viewBox="0 0 25 25">
		<path d="M12.5 21.875C17.6777 21.875 21.875 17.6777 21.875 12.5C21.875 7.32233 17.6777 3.125 12.5 3.125C7.32233 3.125 3.125 7.32233 3.125 12.5C3.125 17.6777 7.32233 21.875 12.5 21.875Z" stroke="currentColor" stroke-width="1.5" stroke-linecap="round" stroke-linejoin="round"/>
		<path d="M18.75 19.2708L12.5 12.5V3.125" stroke="currentColor" stroke-width="1.5" stroke-linecap="round" stroke-linejoin="round"/>
		<path d="M12.5 12.5H21.875" stroke="currentColor" stroke-width="1.5" stroke-linecap="round" stroke-linejoin="round"/>
	</symbol>
	<symbol fill="none" id="icon-aside-menu-5" viewBox="0 0 25 25">
		<path d="M3.125 9.375V20.8333C3.125 21.4086 3.59137 21.875 4.16667 21.875H15.625" stroke="currentColor" stroke-width="1.5" stroke-linecap="round" stroke-linejoin="round"/>
		<path d="M8.33317 17.7083L20.8332 17.7083C21.4085 17.7083 21.8748 17.242 21.8748 16.6667L21.8748 4.16667C21.8748 3.59137 21.4085 3.125 20.8332 3.125L8.33317 3.125C7.75787 3.125 7.2915 3.59137 7.2915 4.16667L7.2915 16.6667C7.2915 17.242 7.75787 17.7083 8.33317 17.7083Z" stroke="currentColor" stroke-width="1.5" stroke-linecap="round" stroke-linejoin="round"/>
		<path d="M14.5835 13.5416V7.29163" stroke="currentColor" stroke-width="1.5" stroke-linecap="round" stroke-linejoin="round"/>
		<path d="M11.4585 10.4166L17.7085 10.4166" stroke="currentColor" stroke-width="1.5" stroke-linecap="round" stroke-linejoin="round"/>
	</symbol>
	<symbol fill="none" id="icon-aside-menu-6" viewBox="0 0 25 25">
		<path d="M7.03125 3.64587C4.6875 3.64587 3.125 5.20837 3.125 7.55212V17.448C3.125 19.7917 4.6875 21.3542 7.03125 21.3542H20.875C21.4273 21.3542 21.875 20.9065 21.875 20.3542V8.81254C21.875 8.26026 21.4273 7.81254 20.875 7.81254H17.1875V4.64587C17.1875 4.09359 16.7409 3.64587 16.1886 3.64587H7.03125Z" stroke="currentColor" stroke-width="1.5"/>
		<circle cx="17.2915" cy="14.375" r="1.25" fill="currentColor"/>
		<path d="M20.8332 7.81254H6.96496C3.23368 7.81254 3.23368 3.64587 6.96499 3.64587" stroke="currentColor" stroke-width="1.5"/>
	</symbol>
	<symbol fill="none" id="icon-aside-menu-7" viewBox="0 0 25 25">
		<path d="M14.5835 17.7084H14.5815V17.7104H14.5835V17.7084Z" stroke="currentColor" stroke-width="1.5" stroke-linecap="round" stroke-linejoin="round"/>
		<path d="M9.375 15.625H9.373V15.627H9.375V15.625Z" stroke="currentColor" stroke-width="1.5" stroke-linecap="round" stroke-linejoin="round"/>
		<path d="M13.5415 12.5H13.5395V12.502H13.5415V12.5Z" stroke="currentColor" stroke-width="1.5" stroke-linecap="round" stroke-linejoin="round"/>
		<path d="M8.3335 10.4166H8.3315V10.4186H8.3335V10.4166Z" stroke="currentColor" stroke-width="1.5" stroke-linecap="round" stroke-linejoin="round"/>
		<path d="M21.875 7.29163H21.873V7.29363H21.875V7.29163Z" stroke="currentColor" stroke-width="1.5" stroke-linecap="round" stroke-linejoin="round"/>
		<path d="M16.6665 3.125H16.6645V3.127H16.6665V3.125Z" stroke="currentColor" stroke-width="2" stroke-linecap="round" stroke-linejoin="round"/>
		<path d="M20.8335 3.125H20.8315V3.127H20.8335V3.125Z" stroke="currentColor" stroke-width="2" stroke-linecap="round" stroke-linejoin="round"/>
		<path d="M12.5153 21.8749C17.6821 21.8692 21.8693 17.6752 21.875 12.4999C21.5065 12.6042 21.1254 12.6575 20.7425 12.6584C19.4756 12.6677 18.2854 12.0516 17.5602 11.0112C16.9118 10.0733 16.7747 8.87272 17.1951 7.81247C16.9263 7.86049 16.6539 7.88496 16.3808 7.8856C15.167 7.89466 14.0149 7.35029 13.25 6.40623C12.5015 5.49007 12.2088 4.283 12.4544 3.125C7.28518 3.14183 3.1083 7.35278 3.12505 12.5304C3.1419 17.7081 7.34602 21.8917 12.5153 21.8749Z" stroke="currentColor" stroke-width="1.5" stroke-linecap="round" stroke-linejoin="round"/>
	</symbol>
	<symbol fill="none" id="icon-aside-menu-8" viewBox="0 0 25 25">
		<path d="M18.0554 8.54167C18.0554 7.10508 17.4701 5.72733 16.4282 4.7115C15.3863 3.69568 13.9733 3.125 12.4998 3.125C11.0264 3.125 9.61334 3.69568 8.57147 4.7115C7.5296 5.72733 6.94428 7.10508 6.94428 8.54167C6.94428 14.8611 4.1665 17.7083 4.1665 17.7083H20.8332C20.8332 17.7083 18.0554 14.8611 18.0554 8.54167Z" stroke="currentColor" stroke-width="1.5" stroke-linecap="round" stroke-linejoin="round"/>
		<path d="M14.5832 20.8334C14.3715 21.1502 14.0676 21.4132 13.7019 21.596C13.3363 21.7788 12.9218 21.875 12.4998 21.875C12.0779 21.875 11.6634 21.7788 11.2977 21.596C10.9321 21.4132 10.6282 21.1502 10.4165 20.8334" stroke="currentColor" stroke-width="1.5" stroke-linecap="round" stroke-linejoin="round"/>
	</symbol>
	<symbol fill="none" id="icon-aside-menu-9" viewBox="0 0 25 25">
		<path d="M4.1665 21.875V10.4166" stroke="currentColor" stroke-width="1.5" stroke-linecap="round" stroke-linejoin="round"/>
		<path d="M20.8335 21.875V10.4166" stroke="currentColor" stroke-width="1.5" stroke-linecap="round" stroke-linejoin="round"/>
		<path d="M4.1665 21.875L20.8332 21.875" stroke="currentColor" stroke-width="1.5" stroke-linecap="round" stroke-linejoin="round"/>
		<path d="M10.4165 15.5416C10.4165 14.4371 11.3119 13.5416 12.4165 13.5416H12.5832C13.6877 13.5416 14.5832 14.4371 14.5832 15.5416V21.875H10.4165V15.5416Z" stroke="currentColor" stroke-width="1.5"/>
		<path d="M1.98335 6.76359L3.5839 4.09601C3.94535 3.4936 4.59636 3.125 5.29888 3.125H19.7008C20.4033 3.125 21.0543 3.4936 21.4158 4.09601L23.0163 6.76359C23.5494 7.65209 23.3157 8.80061 22.4777 9.41005L22.2699 9.56114C21.5686 10.0712 20.6185 10.0712 19.9172 9.56115L18.229 8.33333L16.5408 9.56114C15.8395 10.0712 14.8894 10.0712 14.1881 9.56115L12.4998 8.33333L10.8116 9.56114C10.1103 10.0712 9.16021 10.0712 8.45891 9.56115L6.77067 8.33333L5.08243 9.56114C4.38113 10.0712 3.43105 10.0712 2.72975 9.56115L2.52199 9.41005C1.68401 8.80061 1.45025 7.65209 1.98335 6.76359Z" stroke="currentColor" stroke-width="1.5" stroke-linecap="round" stroke-linejoin="round"/>
	</symbol>
	<symbol fill="none" id="icon-aside-menu-10" viewBox="0 0 25 25">
		<path d="M18.75 3.125C17.9212 3.125 17.1263 3.45424 16.5403 4.04029C15.9542 4.62634 15.625 5.4212 15.625 6.25V18.75C15.625 19.5788 15.9542 20.3737 16.5403 20.9597C17.1263 21.5458 17.9212 21.875 18.75 21.875C19.5788 21.875 20.3737 21.5458 20.9597 20.9597C21.5458 20.3737 21.875 19.5788 21.875 18.75C21.875 17.9212 21.5458 17.1263 20.9597 16.5403C20.3737 15.9542 19.5788 15.625 18.75 15.625H6.25C5.4212 15.625 4.62634 15.9542 4.04029 16.5403C3.45424 17.1263 3.125 17.9212 3.125 18.75C3.125 19.5788 3.45424 20.3737 4.04029 20.9597C4.62634 21.5458 5.4212 21.875 6.25 21.875C7.0788 21.875 7.87366 21.5458 8.45971 20.9597C9.04576 20.3737 9.375 19.5788 9.375 18.75V6.25C9.375 5.4212 9.04576 4.62634 8.45971 4.04029C7.87366 3.45424 7.0788 3.125 6.25 3.125C5.4212 3.125 4.62634 3.45424 4.04029 4.04029C3.45424 4.62634 3.125 5.4212 3.125 6.25C3.125 7.0788 3.45424 7.87366 4.04029 8.45971C4.62634 9.04576 5.4212 9.375 6.25 9.375H18.75C19.5788 9.375 20.3737 9.04576 20.9597 8.45971C21.5458 7.87366 21.875 7.0788 21.875 6.25C21.875 5.4212 21.5458 4.62634 20.9597 4.04029C20.3737 3.45424 19.5788 3.125 18.75 3.125Z" stroke="currentColor" stroke-width="1.5" stroke-linecap="round" stroke-linejoin="round"/>
	</symbol>
	<symbol fill="none" id="icon-aside-menu-11" viewBox="0 0 25 25">
		<path d="M12.5007 22.9173C18.2536 22.9173 22.9173 18.2536 22.9173 12.5007C22.9173 6.74768 18.2536 2.08398 12.5007 2.08398C6.74768 2.08398 2.08398 6.74768 2.08398 12.5007C2.08398 18.2536 6.74768 22.9173 12.5007 22.9173Z" stroke="currentColor" stroke-width="1.5" stroke-linecap="round" stroke-linejoin="round"/>
		<path d="M12.5 18.75C15.9518 18.75 18.75 15.9518 18.75 12.5C18.75 9.04822 15.9518 6.25 12.5 6.25C9.04822 6.25 6.25 9.04822 6.25 12.5C6.25 15.9518 9.04822 18.75 12.5 18.75Z" stroke="currentColor" stroke-width="1.5" stroke-linecap="round" stroke-linejoin="round"/>
		<path d="M12.4993 14.5827C13.6499 14.5827 14.5827 13.6499 14.5827 12.4993C14.5827 11.3488 13.6499 10.416 12.4993 10.416C11.3488 10.416 10.416 11.3488 10.416 12.4993C10.416 13.6499 11.3488 14.5827 12.4993 14.5827Z" stroke="currentColor" stroke-width="1.5" stroke-linecap="round" stroke-linejoin="round"/>
	</symbol>
	<symbol fill="none" id="icon-aside-menu-12" viewBox="0 0 25 25">
		<circle cx="12.5" cy="12.5" r="3.125" stroke="currentColor" stroke-width="1.5"/>
		<path d="M5.26901 5.79537C4.25059 6.89305 3.51108 8.19569 3.08049 9.5913L4.99349 10.6958C6.38238 11.4976 6.38238 13.5023 4.99349 14.3042L3.07861 15.4098C3.29244 16.0999 3.58596 16.7771 3.96245 17.4292C4.33892 18.0813 4.77863 18.6741 5.26937 19.2043L7.18428 18.0987C8.57317 17.2968 10.3093 18.2992 10.3093 19.9029V22.112C11.7332 22.4369 13.2311 22.4477 14.6909 22.1146L14.6909 19.903C14.6909 18.2993 16.427 17.2969 17.8159 18.0988L19.7312 19.2046C20.7496 18.1069 21.4891 16.8043 21.9197 15.4087L20.0067 14.3042C18.6178 13.5023 18.6178 11.4976 20.0067 10.6957L21.9216 9.59014C21.7078 8.90003 21.4142 8.22283 21.0378 7.57076C20.6613 6.91867 20.2216 6.32587 19.7308 5.79562L17.8159 6.90118C16.427 7.70306 14.6909 6.70071 14.6909 5.09696V2.888C13.267 2.56311 11.7691 2.55222 10.3093 2.88536L10.3093 5.09694C10.3093 6.70069 8.57317 7.70303 7.18428 6.90116L5.26901 5.79537Z" stroke="currentColor" stroke-width="1.5" stroke-linejoin="round"/>
	</symbol>
	<symbol fill="none" id="icon-aside-menu-13" viewBox="0 0 25 25">
		<path d="M19.791 3.125H5.20768C4.63239 3.125 4.16602 3.59137 4.16602 4.16667V10.5884C4.16602 18.2775 10.7016 21.1995 12.1971 21.7675C12.3952 21.8428 12.6035 21.8428 12.8016 21.7675C14.2971 21.1995 20.8327 18.2775 20.8327 10.5884V4.16667C20.8327 3.59137 20.3663 3.125 19.791 3.125Z" stroke="#53627B" stroke-width="1.5" stroke-linecap="round" stroke-linejoin="round"/>
		<path d="M16.6673 8.33398L11.1118 14.584L8.33398 11.459" stroke="#53627B" stroke-width="1.5" stroke-linecap="round" stroke-linejoin="round"/>
	</symbol>
	<symbol fill="none" id="icon-aside-menu-toggler" viewBox="0 0 18 18">
		<path d="M6.75 16.5H11.25C15 16.5 16.5 15 16.5 11.25V6.75C16.5 3 15 1.5 11.25 1.5H6.75C3 1.5 1.5 3 1.5 6.75V11.25C1.5 15 3 16.5 6.75 16.5Z" stroke="#949CAC" stroke-linecap="round" stroke-linejoin="round"/>
		<path d="M8.05518 11.6475L10.6952 9.00004L8.05518 6.35254" stroke="#3D5EB4" stroke-linecap="round" stroke-linejoin="round"/>
	</symbol>
	<symbol fill="none" id="icon-aside-menu-logo" viewBox="0 0 118 19">
		<path fill-rule="evenodd" clip-rule="evenodd" d="M8.755 0.0400642C5.95412 0.234954 3.63478 1.44281 2.07694 3.51788C1.05548 4.87848 0.39925 6.51869 0.194993 8.22147L0.129982 8.76356L0.480125 8.81445C1.92786 9.02483 3.40983 9.08636 4.51276 8.98182L5.09131 8.92695L5.14468 8.52809C5.28841 7.45481 5.89876 6.13298 6.56939 5.44299C7.83149 4.14435 10.0026 3.80979 11.7232 4.64872C13.348 5.44091 14.431 7.61525 14.2974 9.81694C14.1748 11.8359 13.1645 13.5649 11.6941 14.2722C10.3342 14.9263 8.521 14.8489 7.31589 14.0853C6.90134 13.8227 6.20649 13.1274 5.98869 12.7573C5.90523 12.6155 5.81435 12.4995 5.78668 12.4995C5.759 12.4995 5.45395 12.7808 5.10872 13.1245C4.41413 13.8163 3.7354 14.6864 3.14806 15.6381L2.76179 16.2641L3.17556 16.6332C4.92671 18.1954 6.96264 18.9096 9.66791 18.9107C12.479 18.9117 14.5525 18.1552 16.3408 16.4762C17.637 15.2592 18.4641 13.8018 18.964 11.8543C19.1603 11.0896 19.1875 10.8082 19.1904 9.51388C19.1939 7.97111 19.133 7.52802 18.7509 6.31186C17.661 2.84399 14.4996 0.322879 10.935 0.0790932C10.5463 0.0525251 10.0925 0.019293 9.92657 0.00518686C9.7606 -0.00891932 9.23344 0.00674591 8.755 0.0400642Z" fill="#1A222A"/>
		<path fill-rule="evenodd" clip-rule="evenodd" d="M9.42257 7.71013C8.0745 8.00073 6.65229 8.76922 6.52572 9.2754C6.47191 9.49036 6.3043 9.54497 5.06841 9.75042C4.06238 9.9177 1.2615 9.83688 0.206241 9.61014L0 9.56583L0.0606132 10.316C0.197532 12.0094 0.972831 14.1129 1.88177 15.2569L2.06499 15.4876L2.56568 14.7166C3.76052 12.8767 5.22913 11.4317 6.63168 10.716C6.9732 10.5417 6.99372 10.5405 7.12745 10.689C7.3305 10.914 7.30257 11.0617 6.9638 11.556C6.67065 11.9838 6.66712 11.9984 6.85603 11.9979C7.45181 11.9964 8.38033 11.4859 8.57019 11.0555C8.66132 10.8489 8.75867 10.7753 8.99094 10.7374C9.5137 10.6521 10.4798 10.3456 10.9003 10.1317C11.3768 9.88932 12.2235 9.12464 12.5682 8.62539C12.8048 8.28277 12.8071 8.26884 12.6477 8.1469C12.0494 7.68936 10.4953 7.47889 9.42257 7.71013ZM6.18928 7.90338C5.96106 7.95019 5.54487 8.27265 5.70938 8.27524C5.7774 8.27628 6.00589 8.36118 6.21722 8.46382C6.5183 8.61007 6.63142 8.62902 6.74023 8.55122C6.81654 8.49661 7.05365 8.35763 7.26704 8.24227L7.65504 8.03258L7.41233 7.93851C7.17867 7.84799 6.54787 7.82982 6.18928 7.90338Z" fill="#3A2CFB"/>
		<path d="M37.8626 0.815227V19H34.1333L26.8967 8.50469H26.7812V19H22.386V0.815227H26.1686L33.3253 11.2928H33.4762V0.815227H37.8626Z" fill="#1A222A"/>
		<path d="M40.7207 0.815227H45.631L49.4757 8.42477H49.6355L53.4803 0.815227H58.3905L51.7399 12.9266V19H47.3713V12.9266L40.7207 0.815227Z" fill="#1A222A"/>
		<path d="M65.6816 0.815227L69.0025 6.56012H69.1445L72.5009 0.815227H77.42L71.9326 9.90761L77.5976 19H72.5542L69.1445 13.1929H69.0025L65.5928 19H60.5849L66.2233 9.90761L60.727 0.815227H65.6816Z" fill="#1A222A"/>
		<path d="M90.6272 11.0595H87.7669C87.7285 10.7658 87.6502 10.5007 87.5318 10.2643C87.4134 10.0278 87.2569 9.8257 87.0623 9.65789C86.8677 9.49008 86.6369 9.36232 86.3699 9.2746C86.1066 9.18307 85.8149 9.1373 85.4945 9.1373C84.9262 9.1373 84.4363 9.2765 84.0245 9.55492C83.6166 9.83333 83.3023 10.2357 83.0814 10.762C82.8644 11.2883 82.7561 11.9252 82.7566 12.6727C82.7571 13.4508 82.8681 14.1029 83.0896 14.6292C83.315 15.1517 83.6299 15.5465 84.0343 15.8134C84.4426 16.0766 84.9251 16.2082 85.4819 16.2082C85.7947 16.2082 86.0788 16.1681 86.3342 16.088C86.5935 16.0079 86.8204 15.8916 87.0148 15.7391C87.213 15.5827 87.3749 15.3939 87.5007 15.1727C87.6302 14.9477 87.7196 14.6941 87.769 14.4118L90.6294 14.429C90.5802 14.9477 90.4298 15.4587 90.1785 15.9622C89.9309 16.4656 89.5899 16.9252 89.1553 17.3409C88.7208 17.7528 88.1909 18.0808 87.5656 18.3249C86.9441 18.5689 86.231 18.691 85.4263 18.691C84.3661 18.691 83.4163 18.4583 82.577 17.993C81.7414 17.5239 81.0812 16.8413 80.5963 15.945C80.1113 15.0488 79.8684 13.958 79.8676 12.6727C79.8668 11.3837 80.1121 10.291 80.6035 9.39473C81.0949 8.49848 81.7599 7.81771 82.5987 7.35242C83.4374 6.88713 84.3773 6.65449 85.4185 6.65449C86.1279 6.65449 86.7839 6.75365 87.3866 6.95197C87.9893 7.14647 88.5196 7.43251 88.9775 7.81008C89.4354 8.18384 89.8076 8.64341 90.094 9.18879C90.3804 9.73417 90.5581 10.3577 90.6272 11.0595Z" fill="#3A2CFB"/>
		<path d="M92.8968 18.5308L92.8892 6.81467H97.7289C98.6061 6.81467 99.3633 6.97294 100 7.28949C100.641 7.60223 101.135 8.05226 101.483 8.63959C101.83 9.22311 102.004 9.91532 102.005 10.7162C102.005 11.5286 101.828 12.2189 101.474 12.7871C101.12 13.3516 100.617 13.7826 99.9647 14.08C99.3128 14.3737 98.5406 14.5205 97.6481 14.5205H94.5876L94.5861 12.2894H97.1204C97.5475 12.2894 97.9041 12.2341 98.19 12.1235C98.4798 12.0091 98.699 11.8375 98.8476 11.6087C98.9962 11.376 99.0703 11.0785 99.0701 10.7162C99.0699 10.3539 98.9953 10.0545 98.8464 9.81807C98.6975 9.5778 98.4781 9.39855 98.1882 9.28032C97.8983 9.15828 97.5416 9.09725 97.1183 9.09725H95.7225L95.7286 18.5308H92.8968ZM99.4893 13.1762L102.41 18.5308H99.3212L96.4574 13.1762H99.4893Z" fill="#3A2CFB"/>
		<path d="M104.2 6.81467H107.707L110.686 14.0686H110.823L113.793 6.81467H117.3L117.308 18.5308H114.55L114.546 11.3341H114.449L111.639 18.4564H109.877L107.057 11.294H106.96L106.965 18.5308H104.207L104.2 6.81467Z" fill="#3A2CFB"/>
	</symbol>
	<symbol fill="none" id="icon-aside-menu-arrow" viewBox="0 0 14 14">
		<path d="M4.77148 3.59268L4.77148 7.27466L4.77148 10.5902C4.77148 11.1576 5.44815 11.4413 5.84482 11.0394L8.86648 7.97796C9.35065 7.48742 9.35065 6.68956 8.86648 6.19902L7.71732 5.03474L5.84482 3.1376C5.44815 2.74162 4.77148 3.02531 4.77148 3.59268Z" fill="currentColor"/>
	</symbol>
</svg>