<svg xmlns="http://www.w3.org/2000/svg">
	<symbol fill="none" id="icon-records-reload" viewBox="0 0 18 18">
		<path d="M5.25 8.25L2.25 11.25L5.25 14.25" stroke="#53627B" stroke-width="1.09375" stroke-linecap="round" stroke-linejoin="round"/>
		<path d="M8.25 3.75H12C14.0711 3.75 15.75 5.42893 15.75 7.5C15.75 9.57107 14.0711 11.25 12 11.25H2.25" stroke="#53627B" stroke-width="1.09375" stroke-linecap="round" stroke-linejoin="round"/>
	</symbol>
	<symbol fill="none" id="icon-records-cross-green" viewBox="0 0 18 18">
		<path d="M13.5 13.5L4.5 4.5" stroke="#2CB493" stroke-width="1.125" stroke-linecap="round" stroke-linejoin="round"/>
		<path d="M13.5 4.5L4.5 13.5" stroke="#2CB493" stroke-width="1.125" stroke-linecap="round" stroke-linejoin="round"/>
	</symbol>
	<symbol fill="none" id="icon-records-profile" viewBox="0 0 18 18">
		<path d="M3.75 15.75C3.75 14.0931 6.1005 12.75 9 12.75C11.8995 12.75 14.25 14.0931 14.25 15.75" stroke="#3D5EB4" stroke-width="1.5" stroke-linecap="round" stroke-linejoin="round"/>
		<path d="M9 9.75C11.0711 9.75 12.75 8.07107 12.75 6C12.75 3.92893 11.0711 2.25 9 2.25C6.92893 2.25 5.25 3.92893 5.25 6C5.25 8.07107 6.92893 9.75 9 9.75Z" stroke="#3D5EB4" stroke-width="1.5" stroke-linecap="round" stroke-linejoin="round"/>
	</symbol>
	<symbol fill="none" id="icon-records-cross-orange" viewBox="0 0 18 18">
		<path d="M13.5 13.5L4.5 4.5" stroke="#F29B34" stroke-width="1.125" stroke-linecap="round" stroke-linejoin="round"/>
		<path d="M13.5 4.5L4.5 13.5" stroke="#F29B34" stroke-width="1.125" stroke-linecap="round" stroke-linejoin="round"/>
	</symbol>
	<symbol fill="none" id="icon-records-battery" viewBox="0 0 18 18">
		<path d="M12.75 4.5H3.75C2.92157 4.5 2.25 5.17157 2.25 6V12C2.25 12.8284 2.92157 13.5 3.75 13.5H12.75C13.5784 13.5 14.25 12.8284 14.25 12V6C14.25 5.17157 13.5784 4.5 12.75 4.5Z" stroke="#2CB493" stroke-width="1.5" stroke-linecap="round" stroke-linejoin="round"/>
		<path d="M14.25 7.5C14.25 7.08579 14.5858 6.75 15 6.75H15.75C16.1642 6.75 16.5 7.08579 16.5 7.5V10.5C16.5 10.9142 16.1642 11.25 15.75 11.25H15C14.5858 11.25 14.25 10.9142 14.25 10.5V7.5Z" fill="#2CB493"/>
		<path d="M3.75 6.375C3.75 6.16789 3.91789 6 4.125 6H5.625C5.83211 6 6 6.16789 6 6.375V11.625C6 11.8321 5.83211 12 5.625 12H4.125C3.91789 12 3.75 11.8321 3.75 11.625V6.375Z" fill="#2CB493"/>
		<path d="M6.75 6.375C6.75 6.16789 6.91789 6 7.125 6H8.625C8.83211 6 9 6.16789 9 6.375V11.625C9 11.8321 8.83211 12 8.625 12H7.125C6.91789 12 6.75 11.8321 6.75 11.625V6.375Z" fill="#2CB493"/>
		<path d="M9.75 6.375C9.75 6.16789 9.91789 6 10.125 6H11.625C11.8321 6 12 6.16789 12 6.375V11.625C12 11.8321 11.8321 12 11.625 12H10.125C9.91789 12 9.75 11.8321 9.75 11.625V6.375Z" fill="#2CB493"/>
	</symbol>
	<symbol fill="none" id="icon-records-battery-low" viewBox="0 0 18 18">
		<path d="M12.75 4.5H3.75C2.92157 4.5 2.25 5.17157 2.25 6V12C2.25 12.8284 2.92157 13.5 3.75 13.5H12.75C13.5784 13.5 14.25 12.8284 14.25 12V6C14.25 5.17157 13.5784 4.5 12.75 4.5Z" stroke="#CA1F29" stroke-width="1.5" stroke-linecap="round" stroke-linejoin="round"/>
		<path d="M14.25 7.5C14.25 7.08579 14.5858 6.75 15 6.75H15.75C16.1642 6.75 16.5 7.08579 16.5 7.5V10.5C16.5 10.9142 16.1642 11.25 15.75 11.25H15C14.5858 11.25 14.25 10.9142 14.25 10.5V7.5Z" fill="#CA1F29"/>
		<path d="M3.75 6.375C3.75 6.16789 3.91789 6 4.125 6H5.625C5.83211 6 6 6.16789 6 6.375V11.625C6 11.8321 5.83211 12 5.625 12H4.125C3.91789 12 3.75 11.8321 3.75 11.625V6.375Z" fill="#CA1F29"/>
	</symbol>
</svg>